<mxfile host="app.diagrams.net" agent="Mozilla/5.0 (Windows NT 10.0; Win64; x64) AppleWebKit/537.36 (KHTML, like Gecko) Chrome/130.0.0.0 Safari/537.36" version="24.8.3">
  <diagram id="PtqWroX1pcGJvrtXxroe" name="Page-1">
    <mxGraphModel dx="1050" dy="522" grid="1" gridSize="10" guides="1" tooltips="1" connect="1" arrows="1" fold="1" page="1" pageScale="1" pageWidth="850" pageHeight="1100" math="0" shadow="0">
      <root>
        <mxCell id="0" />
        <mxCell id="1" parent="0" />
        <mxCell id="wP3wJTWDok0Trz7eWz-c-7" style="edgeStyle=orthogonalEdgeStyle;rounded=0;orthogonalLoop=1;jettySize=auto;html=1;exitX=0.5;exitY=0.5;exitDx=0;exitDy=0;exitPerimeter=0;entryX=0;entryY=0.5;entryDx=0;entryDy=0;" parent="1" source="g7VKKsddG1Id4xtsdgsH-1" target="wP3wJTWDok0Trz7eWz-c-5" edge="1">
          <mxGeometry relative="1" as="geometry" />
        </mxCell>
        <mxCell id="wP3wJTWDok0Trz7eWz-c-8" style="edgeStyle=orthogonalEdgeStyle;rounded=0;orthogonalLoop=1;jettySize=auto;html=1;exitX=0.5;exitY=0.5;exitDx=0;exitDy=0;exitPerimeter=0;entryX=0;entryY=0.5;entryDx=0;entryDy=0;" parent="1" source="g7VKKsddG1Id4xtsdgsH-1" target="wP3wJTWDok0Trz7eWz-c-6" edge="1">
          <mxGeometry relative="1" as="geometry" />
        </mxCell>
        <mxCell id="wP3wJTWDok0Trz7eWz-c-17" style="edgeStyle=orthogonalEdgeStyle;rounded=0;orthogonalLoop=1;jettySize=auto;html=1;entryX=0;entryY=0.5;entryDx=0;entryDy=0;" parent="1" source="g7VKKsddG1Id4xtsdgsH-1" target="wP3wJTWDok0Trz7eWz-c-16" edge="1">
          <mxGeometry relative="1" as="geometry" />
        </mxCell>
        <mxCell id="g7VKKsddG1Id4xtsdgsH-1" value="Actor" style="shape=umlActor;verticalLabelPosition=bottom;verticalAlign=top;html=1;outlineConnect=0;" parent="1" vertex="1">
          <mxGeometry x="70" y="200" width="30" height="60" as="geometry" />
        </mxCell>
        <mxCell id="wP3wJTWDok0Trz7eWz-c-13" style="edgeStyle=orthogonalEdgeStyle;rounded=0;orthogonalLoop=1;jettySize=auto;html=1;exitX=1;exitY=0.5;exitDx=0;exitDy=0;entryX=0.5;entryY=0;entryDx=0;entryDy=0;" parent="1" source="wP3wJTWDok0Trz7eWz-c-5" target="wP3wJTWDok0Trz7eWz-c-12" edge="1">
          <mxGeometry relative="1" as="geometry" />
        </mxCell>
        <mxCell id="wP3wJTWDok0Trz7eWz-c-5" value="&lt;font style=&quot;font-size: 11px;&quot;&gt;Загрузить данные о своем оборудовании&lt;/font&gt;" style="rhombus;whiteSpace=wrap;html=1;" parent="1" vertex="1">
          <mxGeometry x="180" y="60" width="200" height="80" as="geometry" />
        </mxCell>
        <mxCell id="wP3wJTWDok0Trz7eWz-c-14" style="edgeStyle=orthogonalEdgeStyle;rounded=0;orthogonalLoop=1;jettySize=auto;html=1;exitX=1;exitY=0.5;exitDx=0;exitDy=0;entryX=0.5;entryY=1;entryDx=0;entryDy=0;" parent="1" source="wP3wJTWDok0Trz7eWz-c-6" target="wP3wJTWDok0Trz7eWz-c-12" edge="1">
          <mxGeometry relative="1" as="geometry" />
        </mxCell>
        <mxCell id="wP3wJTWDok0Trz7eWz-c-6" value="&lt;font style=&quot;font-size: 11px;&quot;&gt;Выбрать локацию&lt;/font&gt;" style="rhombus;whiteSpace=wrap;html=1;" parent="1" vertex="1">
          <mxGeometry x="180" y="200" width="200" height="50" as="geometry" />
        </mxCell>
        <mxCell id="wP3wJTWDok0Trz7eWz-c-20" style="edgeStyle=orthogonalEdgeStyle;rounded=0;orthogonalLoop=1;jettySize=auto;html=1;exitX=1;exitY=0.5;exitDx=0;exitDy=0;" parent="1" source="wP3wJTWDok0Trz7eWz-c-12" target="wP3wJTWDok0Trz7eWz-c-18" edge="1">
          <mxGeometry relative="1" as="geometry" />
        </mxCell>
        <mxCell id="wP3wJTWDok0Trz7eWz-c-12" value="Система учета данных юзера" style="ellipse;whiteSpace=wrap;html=1;aspect=fixed;" parent="1" vertex="1">
          <mxGeometry x="430" y="120" width="80" height="80" as="geometry" />
        </mxCell>
        <mxCell id="wP3wJTWDok0Trz7eWz-c-19" style="edgeStyle=orthogonalEdgeStyle;rounded=0;orthogonalLoop=1;jettySize=auto;html=1;entryX=0;entryY=0.5;entryDx=0;entryDy=0;" parent="1" source="wP3wJTWDok0Trz7eWz-c-16" target="wP3wJTWDok0Trz7eWz-c-18" edge="1">
          <mxGeometry relative="1" as="geometry" />
        </mxCell>
        <mxCell id="wP3wJTWDok0Trz7eWz-c-16" value="&lt;font style=&quot;font-size: 11px;&quot;&gt;Запросить текущие&amp;nbsp;&lt;/font&gt;&lt;div&gt;&lt;font style=&quot;font-size: 11px;&quot;&gt;видные объекты&lt;/font&gt;&lt;/div&gt;" style="rhombus;whiteSpace=wrap;html=1;" parent="1" vertex="1">
          <mxGeometry x="180" y="310" width="200" height="60" as="geometry" />
        </mxCell>
        <mxCell id="YFpaz4wGAG_Ez2dE_PRF-11" style="edgeStyle=orthogonalEdgeStyle;rounded=0;orthogonalLoop=1;jettySize=auto;html=1;" parent="1" source="wP3wJTWDok0Trz7eWz-c-18" edge="1">
          <mxGeometry relative="1" as="geometry">
            <mxPoint x="650" y="270" as="targetPoint" />
          </mxGeometry>
        </mxCell>
        <mxCell id="wP3wJTWDok0Trz7eWz-c-18" value="Система подбора" style="ellipse;whiteSpace=wrap;html=1;aspect=fixed;" parent="1" vertex="1">
          <mxGeometry x="530" y="300" width="80" height="80" as="geometry" />
        </mxCell>
        <mxCell id="YFpaz4wGAG_Ez2dE_PRF-6" style="edgeStyle=orthogonalEdgeStyle;rounded=0;orthogonalLoop=1;jettySize=auto;html=1;" parent="1" source="YFpaz4wGAG_Ez2dE_PRF-2" edge="1">
          <mxGeometry relative="1" as="geometry">
            <mxPoint x="85" y="290" as="targetPoint" />
          </mxGeometry>
        </mxCell>
        <mxCell id="YFpaz4wGAG_Ez2dE_PRF-2" value="Список небесных тел" style="rounded=0;whiteSpace=wrap;html=1;" parent="1" vertex="1">
          <mxGeometry x="290" y="420" width="140" height="40" as="geometry" />
        </mxCell>
        <mxCell id="YFpaz4wGAG_Ez2dE_PRF-5" value="" style="endArrow=classic;html=1;rounded=0;entryX=1;entryY=0.5;entryDx=0;entryDy=0;exitX=0.5;exitY=1;exitDx=0;exitDy=0;" parent="1" source="wP3wJTWDok0Trz7eWz-c-18" target="YFpaz4wGAG_Ez2dE_PRF-2" edge="1">
          <mxGeometry width="50" height="50" relative="1" as="geometry">
            <mxPoint x="310" y="330" as="sourcePoint" />
            <mxPoint x="360" y="280" as="targetPoint" />
            <Array as="points">
              <mxPoint x="570" y="440" />
            </Array>
          </mxGeometry>
        </mxCell>
        <mxCell id="YFpaz4wGAG_Ez2dE_PRF-13" style="edgeStyle=orthogonalEdgeStyle;rounded=0;orthogonalLoop=1;jettySize=auto;html=1;entryX=0.5;entryY=1;entryDx=0;entryDy=0;" parent="1" source="YFpaz4wGAG_Ez2dE_PRF-7" target="YFpaz4wGAG_Ez2dE_PRF-2" edge="1">
          <mxGeometry relative="1" as="geometry">
            <mxPoint x="750" y="340" as="targetPoint" />
            <Array as="points">
              <mxPoint x="750" y="480" />
              <mxPoint x="360" y="480" />
            </Array>
          </mxGeometry>
        </mxCell>
        <mxCell id="YFpaz4wGAG_Ez2dE_PRF-7" value="База знаний о небесных телах" style="ellipse;whiteSpace=wrap;html=1;aspect=fixed;" parent="1" vertex="1">
          <mxGeometry x="710" y="140" width="80" height="80" as="geometry" />
        </mxCell>
        <mxCell id="YFpaz4wGAG_Ez2dE_PRF-12" style="edgeStyle=orthogonalEdgeStyle;rounded=0;orthogonalLoop=1;jettySize=auto;html=1;entryX=0;entryY=0.5;entryDx=0;entryDy=0;" parent="1" source="YFpaz4wGAG_Ez2dE_PRF-10" target="YFpaz4wGAG_Ez2dE_PRF-7" edge="1">
          <mxGeometry relative="1" as="geometry">
            <mxPoint x="680" y="170" as="targetPoint" />
            <Array as="points">
              <mxPoint x="650" y="180" />
            </Array>
          </mxGeometry>
        </mxCell>
        <mxCell id="YFpaz4wGAG_Ez2dE_PRF-10" value="Запрос" style="rhombus;whiteSpace=wrap;html=1;" parent="1" vertex="1">
          <mxGeometry x="610" y="230" width="80" height="40" as="geometry" />
        </mxCell>
        <mxCell id="W4FITgFBoCbSTTX3B-rG-1" value="Actor" style="shape=umlActor;verticalLabelPosition=bottom;verticalAlign=top;html=1;outlineConnect=0;" vertex="1" parent="1">
          <mxGeometry x="100" y="780" width="30" height="60" as="geometry" />
        </mxCell>
        <mxCell id="W4FITgFBoCbSTTX3B-rG-2" value="" style="endArrow=classic;html=1;rounded=0;" edge="1" parent="1" source="W4FITgFBoCbSTTX3B-rG-1" target="W4FITgFBoCbSTTX3B-rG-3">
          <mxGeometry width="50" height="50" relative="1" as="geometry">
            <mxPoint x="390" y="770" as="sourcePoint" />
            <mxPoint x="250" y="700" as="targetPoint" />
          </mxGeometry>
        </mxCell>
        <mxCell id="W4FITgFBoCbSTTX3B-rG-3" value="Заполнить данные об оборудовании" style="ellipse;whiteSpace=wrap;html=1;" vertex="1" parent="1">
          <mxGeometry x="200" y="670" width="150" height="60" as="geometry" />
        </mxCell>
        <mxCell id="W4FITgFBoCbSTTX3B-rG-5" value="" style="endArrow=classic;html=1;rounded=0;exitX=1;exitY=0.3333333333333333;exitDx=0;exitDy=0;exitPerimeter=0;" edge="1" parent="1" source="W4FITgFBoCbSTTX3B-rG-1" target="W4FITgFBoCbSTTX3B-rG-6">
          <mxGeometry width="50" height="50" relative="1" as="geometry">
            <mxPoint x="480" y="670" as="sourcePoint" />
            <mxPoint x="230" y="790" as="targetPoint" />
          </mxGeometry>
        </mxCell>
        <mxCell id="W4FITgFBoCbSTTX3B-rG-6" value="Выбрать локацию" style="ellipse;whiteSpace=wrap;html=1;" vertex="1" parent="1">
          <mxGeometry x="200" y="770" width="150" height="40" as="geometry" />
        </mxCell>
        <mxCell id="W4FITgFBoCbSTTX3B-rG-7" value="" style="endArrow=classic;html=1;rounded=0;exitX=1;exitY=0.3333333333333333;exitDx=0;exitDy=0;exitPerimeter=0;" edge="1" parent="1" source="W4FITgFBoCbSTTX3B-rG-1" target="W4FITgFBoCbSTTX3B-rG-8">
          <mxGeometry width="50" height="50" relative="1" as="geometry">
            <mxPoint x="480" y="960" as="sourcePoint" />
            <mxPoint x="210" y="870" as="targetPoint" />
          </mxGeometry>
        </mxCell>
        <mxCell id="W4FITgFBoCbSTTX3B-rG-23" style="rounded=0;orthogonalLoop=1;jettySize=auto;html=1;entryX=0;entryY=0.5;entryDx=0;entryDy=0;dashed=1;" edge="1" parent="1" source="W4FITgFBoCbSTTX3B-rG-8" target="W4FITgFBoCbSTTX3B-rG-17">
          <mxGeometry relative="1" as="geometry" />
        </mxCell>
        <mxCell id="W4FITgFBoCbSTTX3B-rG-8" value="Запросить видимые объекты" style="ellipse;whiteSpace=wrap;html=1;" vertex="1" parent="1">
          <mxGeometry x="200" y="840" width="150" height="50" as="geometry" />
        </mxCell>
        <mxCell id="W4FITgFBoCbSTTX3B-rG-9" value="Сохранить данные&amp;nbsp;" style="ellipse;whiteSpace=wrap;html=1;" vertex="1" parent="1">
          <mxGeometry x="420" y="660" width="150" height="60" as="geometry" />
        </mxCell>
        <mxCell id="W4FITgFBoCbSTTX3B-rG-20" style="rounded=0;orthogonalLoop=1;jettySize=auto;html=1;exitX=0.5;exitY=0.5;exitDx=0;exitDy=0;exitPerimeter=0;" edge="1" parent="1" source="W4FITgFBoCbSTTX3B-rG-10" target="W4FITgFBoCbSTTX3B-rG-21">
          <mxGeometry relative="1" as="geometry">
            <mxPoint x="650" y="640" as="targetPoint" />
          </mxGeometry>
        </mxCell>
        <mxCell id="W4FITgFBoCbSTTX3B-rG-10" value="Система сохранения" style="shape=umlActor;verticalLabelPosition=bottom;verticalAlign=top;html=1;outlineConnect=0;" vertex="1" parent="1">
          <mxGeometry x="555" y="520" width="30" height="60" as="geometry" />
        </mxCell>
        <mxCell id="W4FITgFBoCbSTTX3B-rG-13" value="" style="endArrow=classic;html=1;rounded=0;entryX=0.5;entryY=0;entryDx=0;entryDy=0;" edge="1" parent="1" source="W4FITgFBoCbSTTX3B-rG-10" target="W4FITgFBoCbSTTX3B-rG-9">
          <mxGeometry width="50" height="50" relative="1" as="geometry">
            <mxPoint x="480" y="790" as="sourcePoint" />
            <mxPoint x="530" y="740" as="targetPoint" />
          </mxGeometry>
        </mxCell>
        <mxCell id="W4FITgFBoCbSTTX3B-rG-14" value="" style="endArrow=classic;html=1;rounded=0;exitX=1;exitY=0.5;exitDx=0;exitDy=0;entryX=0;entryY=0.5;entryDx=0;entryDy=0;dashed=1;" edge="1" parent="1" source="W4FITgFBoCbSTTX3B-rG-3" target="W4FITgFBoCbSTTX3B-rG-9">
          <mxGeometry width="50" height="50" relative="1" as="geometry">
            <mxPoint x="480" y="790" as="sourcePoint" />
            <mxPoint x="530" y="740" as="targetPoint" />
          </mxGeometry>
        </mxCell>
        <mxCell id="W4FITgFBoCbSTTX3B-rG-15" style="rounded=0;orthogonalLoop=1;jettySize=auto;html=1;exitX=1;exitY=0.5;exitDx=0;exitDy=0;entryX=0.451;entryY=0.953;entryDx=0;entryDy=0;entryPerimeter=0;dashed=1;" edge="1" parent="1" source="W4FITgFBoCbSTTX3B-rG-6" target="W4FITgFBoCbSTTX3B-rG-9">
          <mxGeometry relative="1" as="geometry" />
        </mxCell>
        <mxCell id="W4FITgFBoCbSTTX3B-rG-18" style="rounded=0;orthogonalLoop=1;jettySize=auto;html=1;exitX=0.5;exitY=0.5;exitDx=0;exitDy=0;exitPerimeter=0;entryX=0.5;entryY=0;entryDx=0;entryDy=0;" edge="1" parent="1" source="W4FITgFBoCbSTTX3B-rG-16" target="W4FITgFBoCbSTTX3B-rG-17">
          <mxGeometry relative="1" as="geometry" />
        </mxCell>
        <mxCell id="W4FITgFBoCbSTTX3B-rG-16" value="Система подбора" style="shape=umlActor;verticalLabelPosition=bottom;verticalAlign=top;html=1;outlineConnect=0;" vertex="1" parent="1">
          <mxGeometry x="760" y="770" width="30" height="60" as="geometry" />
        </mxCell>
        <mxCell id="W4FITgFBoCbSTTX3B-rG-17" value="Подобрать объекты&lt;div&gt;для просмотра&lt;/div&gt;" style="ellipse;whiteSpace=wrap;html=1;" vertex="1" parent="1">
          <mxGeometry x="490" y="850" width="140" height="50" as="geometry" />
        </mxCell>
        <mxCell id="W4FITgFBoCbSTTX3B-rG-22" style="rounded=0;orthogonalLoop=1;jettySize=auto;html=1;entryX=0.5;entryY=0;entryDx=0;entryDy=0;dashed=1;" edge="1" parent="1" source="W4FITgFBoCbSTTX3B-rG-21" target="W4FITgFBoCbSTTX3B-rG-17">
          <mxGeometry relative="1" as="geometry" />
        </mxCell>
        <mxCell id="W4FITgFBoCbSTTX3B-rG-21" value="Получить данные" style="ellipse;whiteSpace=wrap;html=1;" vertex="1" parent="1">
          <mxGeometry x="610" y="660" width="100" height="50" as="geometry" />
        </mxCell>
        <mxCell id="W4FITgFBoCbSTTX3B-rG-24" value="Показать пользователю объекты" style="ellipse;whiteSpace=wrap;html=1;" vertex="1" parent="1">
          <mxGeometry x="485" y="960" width="170" height="60" as="geometry" />
        </mxCell>
        <mxCell id="W4FITgFBoCbSTTX3B-rG-25" value="" style="endArrow=classic;html=1;rounded=0;" edge="1" parent="1" source="W4FITgFBoCbSTTX3B-rG-16" target="W4FITgFBoCbSTTX3B-rG-24">
          <mxGeometry width="50" height="50" relative="1" as="geometry">
            <mxPoint x="480" y="830" as="sourcePoint" />
            <mxPoint x="530" y="780" as="targetPoint" />
          </mxGeometry>
        </mxCell>
      </root>
    </mxGraphModel>
  </diagram>
</mxfile>
